<?xml version="1.0" encoding="utf-8"?>
<!-- Generator: Adobe Illustrator 22.1.0, SVG Export Plug-In . SVG Version: 6.00 Build 0)  -->
<svg version="1.1" id="Layer_1" xmlns="http://www.w3.org/2000/svg" xmlns:xlink="http://www.w3.org/1999/xlink" x="0px" y="0px"
	 viewBox="0 0 200 51.8" style="enable-background:new 0 0 200 51.8;" xml:space="preserve">
<style type="text/css">
	.st0{fill:#6D42C7;}
	.st1{fill:#E85B48;}
</style>
<g>
	<g>
		<path class="st0" d="M84.7,30.6l-4.6-0.9c-2.4-0.5-3.6-1.7-3.6-3.7c0-1.1,0.5-2.1,1.4-2.9c1-0.8,2.2-1.2,3.7-1.2
			c1.9,0,3.3,0.5,4.2,1.4c1,1,1.5,2,1.8,3.2l5.8-1.8c-0.2-1-0.6-2-1.1-2.9c-0.5-0.9-1.2-1.8-2.1-2.7c-0.9-0.9-2.1-1.6-3.6-2.1
			c-1.5-0.5-3.2-0.8-5.1-0.8c-3.2,0-5.9,1-8.1,3c-2.2,2-3.4,4.4-3.4,7.3c0,2.4,0.8,4.5,2.3,6.1c1.5,1.6,3.7,2.7,6.3,3.3l4.6,0.9
			c1.3,0.2,2.3,0.7,2.9,1.4c0.7,0.7,1,1.5,1,2.5c0,1.2-0.5,2.2-1.4,2.9c-0.9,0.7-2.3,1.1-3.9,1.1c-2.2,0-3.9-0.6-5.1-1.8
			c-1.2-1.2-1.9-2.6-2.1-4.4l-5.9,1.6c0.1,1.2,0.5,2.4,1,3.6c0.6,1.2,1.4,2.3,2.4,3.3c1,1,2.4,1.9,4,2.5c1.7,0.6,3.5,0.9,5.6,0.9
			c3.6,0,6.5-1,8.7-3c2.2-2,3.2-4.4,3.2-7.1c0-2.4-0.8-4.5-2.4-6.2C89.8,32.3,87.6,31.1,84.7,30.6z"/>
		<path class="st0" d="M117.5,34.9c0-2.5-0.8-4.6-2.4-6.2c-1.6-1.6-4.1-2.4-7.5-2.4c-2.8,0-5.1,0.8-6.9,2.3C99,30,98,31.7,97.8,33.7
			l5.5,1.2c0.1-1.1,0.5-1.9,1.3-2.6c0.8-0.7,1.8-1.1,3.1-1.1c1.2,0,2.2,0.3,2.9,0.8c0.7,0.6,1,1.3,1,2.1c0,0.9-0.6,1.5-1.7,1.6
			l-5.6,0.8c-2,0.3-3.7,1.1-4.9,2.2c-1.3,1.2-1.9,2.7-1.9,4.7c0,1.9,0.7,3.5,2.2,4.8c1.4,1.4,3.3,2,5.7,2c3,0,5.3-1.1,6.7-3.4
			c0,1.1,0.2,2.7,0.3,3.4h5.7c-0.2-1.1-0.4-2.9-0.4-4.3V34.9z M111.5,40.5c0,1.9-0.5,3.2-1.4,4.1c-0.9,0.8-2.1,1.2-3.6,1.2
			c-0.9,0-1.7-0.3-2.2-0.8c-0.5-0.5-0.8-1.1-0.8-1.9c0-1.6,0.9-2.6,2.8-2.9l5.2-0.8V40.5z"/>
		<path class="st0" d="M131.2,20.4h-5.6v3.2c0,1.1-0.3,2-0.9,2.6c-0.6,0.7-1.5,1-2.6,1H121v5.5h4.1v10.6c0,2.2,0.6,3.9,1.9,5.2
			c1.3,1.3,3.1,1.9,5.3,1.9c1.4,0,2.6-0.2,3.5-0.6v-5.1c-0.4,0.1-1.1,0.2-1.9,0.2c-0.9,0-1.6-0.2-2-0.6c-0.4-0.4-0.6-1.1-0.6-2v-9.6
			h4.6v-5.5h-4.6V20.4z"/>
		<polygon class="st0" points="162.2,30.7 147.8,30.7 147.8,17.5 141.4,17.5 141.4,50.4 147.8,50.4 147.8,36.7 162.2,36.7 
			162.2,50.4 168.6,50.4 168.6,17.5 162.2,17.5 		"/>
		<path class="st0" d="M197.6,33.5c1.3-1.7,1.9-3.6,1.9-5.9c0-2.9-1-5.3-2.9-7.2c-1.9-1.9-4.5-2.9-7.6-2.9h-12.9v32.9h6.5V37.7h3.3
			l6.5,12.7h7.2l-7.1-13.5C194.7,36.3,196.4,35.2,197.6,33.5z M191.6,30.9c-0.9,0.8-2.2,1.3-3.8,1.3h-5.2V23h5.2
			c1.6,0,2.9,0.4,3.8,1.3c0.9,0.8,1.4,2,1.4,3.3C192.9,29,192.5,30.1,191.6,30.9z"/>
	</g>
	<path class="st1" d="M30.4,50.4l8.7,0l0,0c2.7-0.1,5.4-0.9,7.8-2.3c2.5-1.5,4.5-3.6,5.9-6l0.1-0.1l8.2-14.9L42.8,27L30.4,50.4z"/>
	<path class="st0" d="M48,3.2L47.9,3c-0.6-0.9-1.6-1.6-2.6-1.6h-20l-24.4,44c-0.6,1-0.5,2.3,0.1,3.4c0.6,1,1.6,1.6,2.7,1.7l15.5,0
		c1.6-0.1,3.3-0.5,4.7-1.4c1.2-0.7,2.2-1.6,3-2.7c0.5-0.9,14-26.4,21.2-39.8C48.5,5.4,48.5,4.2,48,3.2z"/>
</g>
</svg>
